<?xml version="1.0" encoding="UTF-8"?>
<svg id="Layer_2" data-name="Layer 2" xmlns="http://www.w3.org/2000/svg" viewBox="0 0 508 508">
  <defs>
    <style>
      .cls-1 {
        fill: #b55a3c;
      }

      .cls-2 {
        fill: #787a74;
      }
    </style>
  </defs>
  <g id="Layer_1-2" data-name="Layer 1">
    <g>
      <g>
        <path class="cls-1" d="M298.2,62.65c-17.28-4.3-25.86-16.64-28.26-33.78-1.51-8.11-1.17-21.72-6.54-27.73-4.89-4.33-7.8,4.76-8.48,8.72-.77,4-.98,8.29-.91,12.41.19,17.99,5.52,36.66,20.74,47.37,9.59,6.97,21.53,9.61,33.23,10.25,7.63.29,15.65.2,22.41-2.92,7.1-3.72,2.47-7.86-2.93-9.44-9.43-2.85-19.72-2.29-29.18-4.87l-.07-.02Z"/>
        <path class="cls-1" d="M304.54,7.09c-4.01-12.35-11.71-6.91-10.39,3.69,1.6,14.83,13.95,27.26,28.79,29.05,2.21.26,4.58.27,6.71-.31,5.74-1.61,5.66-6.25.57-8.71-3.32-1.64-7.03-2.33-10.45-3.8-9.54-4.02-12.42-10.56-15.22-19.86l-.02-.05Z"/>
        <path class="cls-1" d="M261.57,100c-36.72-11.23-29.76-49.98-31.48-80.27-.38-5.18-1.9-21.36-9.05-19.6-8.3,4.89-6.75,28.76-7.05,37.92.17,17.46-.08,35.73,7.99,51.54,17.23,33.45,55.75,30.58,88.07,30.18,6.56-.34,13.43-.78,19.45-3.49,10.21-5.17.7-10.23-5.88-11.27-20.43-3.58-41.89.92-61.99-4.98l-.07-.02Z"/>
        <path class="cls-1" d="M209.03,134.85c-16.56-10.3-17.03-32.14-17.29-49.7-.77-24.01,1.53-48.61-1.64-72.52-1.14-8.33-7.4-19.98-12.65-6.4-5.33,17.1-2.72,37.42-3.37,55.41,1.27,27.52-5,60.32,15.15,82.32,21.36,20.84,54.33,14.82,81.78,15.96,18.02-.61,37.98,1.74,55.27-2.8,7.15-2.22,11.11-6.41,3.89-10.41-7.5-3.71-17.66-4.04-26.2-4.27-18.7-.25-37.64.03-56.31-.18-12.99-.3-27.24-.43-38.57-7.37l-.06-.04Z"/>
      </g>
      <g>
        <g>
          <path d="M4,332.2v-114.4h17.38v99.04h65.92v15.36H4Z"/>
          <path d="M162.25,334c-8.42,0-16.26-1.5-23.53-4.49-7.27-3-13.64-7.19-19.11-12.58-5.47-5.39-9.7-11.66-12.71-18.79-3.01-7.14-4.51-14.84-4.51-23.13s1.53-15.99,4.59-23.13c3.06-7.13,7.32-13.4,12.79-18.79,5.47-5.39,11.81-9.59,19.02-12.58,7.22-3,15.03-4.5,23.45-4.5s16.07,1.5,23.29,4.5c7.22,3,13.55,7.19,19.02,12.58,5.47,5.39,9.73,11.66,12.79,18.79,3.06,7.14,4.59,14.85,4.59,23.13s-1.53,15.99-4.59,23.13c-3.06,7.14-7.33,13.4-12.79,18.79-5.47,5.39-11.81,9.59-19.02,12.58-7.22,2.99-14.98,4.49-23.29,4.49ZM162.09,318.15c6.01,0,11.56-1.09,16.64-3.27,5.08-2.18,9.54-5.23,13.37-9.15,3.83-3.92,6.81-8.52,8.94-13.81,2.13-5.28,3.2-10.92,3.2-16.91s-1.07-11.9-3.2-17.08c-2.13-5.17-5.11-9.72-8.94-13.65-3.83-3.92-8.28-6.97-13.37-9.15-5.08-2.18-10.58-3.27-16.48-3.27s-11.59,1.09-16.73,3.27c-5.14,2.18-9.59,5.23-13.36,9.15-3.77,3.92-6.75,8.5-8.94,13.73-2.19,5.23-3.28,10.9-3.28,17s1.09,11.77,3.28,17c2.19,5.23,5.17,9.81,8.94,13.73,3.77,3.92,8.22,6.97,13.36,9.15,5.14,2.18,10.66,3.27,16.56,3.27Z"/>
          <path d="M252.61,332.2v-114.4h17.38v99.04h65.92v15.36h-83.31Z"/>
          <path d="M365.6,332.2v-114.4h17.38v114.4h-17.38Z"/>
          <path d="M418.56,332.2v-114.4h84.78v15.04h-67.4v34.32h44.11v14.71h-44.11v35.3h68.06v15.04h-85.44Z"/>
        </g>
        <path d="M453.29,198.69c6.4-4.02,12.6-2.85,18.4,1.71,2.85,2.04,6.79,6.36,10.16,6.56,2.73-.17.9-3.88-.07-5.32-.96-1.48-2.17-2.87-3.41-4.12-5.39-5.51-12.51-9.64-20.19-8.24-4.91.81-9.23,3.69-12.89,7.11-2.35,2.27-4.7,4.78-5.78,7.84-1,3.35,1.6,3.2,3.67,2.01,3.64-2.04,6.52-5.39,10.1-7.52l.03-.02Z"/>
      </g>
      <g>
        <path class="cls-2" d="M0,435.47l18.33-42.69h7.03l18.27,42.69h-6.37l-16.65-40.18h2.04l-16.89,40.18H0ZM9.19,424.41v-4.72h25.54v4.72H9.19Z"/>
        <path class="cls-2" d="M53.55,435.47v-42.69h23.02c2.56,0,4.83.45,6.79,1.34,1.96.9,3.49,2.22,4.57,3.98,1.08,1.75,1.62,3.89,1.62,6.4,0,1.95-.36,3.71-1.08,5.26-.72,1.55-1.71,2.83-2.98,3.83-1.26,1-2.73,1.65-4.42,1.97l-.36-.66c1.64.32,2.93.75,3.88,1.29.94.54,1.67,1.27,2.19,2.18.52.92,1,2.09,1.44,3.53l3.91,13.57h-6.13l-3.61-12.8c-.44-1.67-1.14-2.9-2.1-3.68-.96-.78-2.22-1.17-3.79-1.17h-17.19v17.64h-5.77ZM59.32,413.11h16.05c1.68,0,3.13-.32,4.33-.96,1.2-.64,2.13-1.55,2.79-2.75.66-1.2.99-2.63.99-4.31,0-2.39-.72-4.25-2.16-5.59-1.44-1.34-3.43-2-5.95-2h-16.05v15.61Z"/>
        <path class="cls-2" d="M123.74,436.25c-4.53,0-8.49-.9-11.9-2.69-3.41-1.79-6.05-4.34-7.93-7.65-1.88-3.31-2.82-7.24-2.82-11.78,0-2.31.25-4.44.75-6.4.5-1.95,1.21-3.76,2.13-5.41.92-1.65,2.04-3.12,3.37-4.39,1.32-1.28,2.82-2.35,4.51-3.23,1.68-.88,3.52-1.54,5.5-2,1.98-.46,4.12-.69,6.4-.69,4.49,0,8.43.89,11.84,2.66,3.4,1.77,6.05,4.33,7.93,7.65,1.88,3.33,2.82,7.26,2.82,11.81,0,2.27-.25,4.39-.75,6.37-.5,1.97-1.21,3.79-2.13,5.44-.92,1.65-2.04,3.12-3.37,4.39-1.32,1.28-2.82,2.35-4.51,3.23-1.68.88-3.52,1.55-5.5,2-1.98.46-4.1.69-6.34.69ZM123.74,431.46c1.72,0,3.33-.18,4.81-.54,1.48-.36,2.84-.89,4.09-1.59,1.24-.7,2.33-1.54,3.27-2.54.94-1,1.74-2.14,2.4-3.44.66-1.29,1.15-2.72,1.47-4.28.32-1.55.48-3.21.48-4.96,0-3.55-.65-6.63-1.95-9.24-1.3-2.61-3.2-4.61-5.68-6.01-2.48-1.4-5.45-2.09-8.9-2.09-1.76,0-3.39.18-4.87.54-1.48.36-2.85.89-4.09,1.58-1.24.7-2.33,1.55-3.27,2.54-.94,1-1.74,2.14-2.4,3.44-.66,1.3-1.15,2.71-1.47,4.25-.32,1.53-.48,3.2-.48,4.99,0,3.55.65,6.63,1.95,9.24,1.3,2.61,3.19,4.61,5.68,6.01,2.48,1.4,5.47,2.09,8.95,2.09ZM147.42,435.47c-1.84,0-3.46-.29-4.84-.87-1.38-.58-2.75-1.53-4.12-2.84l-11.54-11.54,3.61-3.59,11.84,11.78c.84.8,1.7,1.38,2.58,1.73.88.36,1.92.54,3.13.54h2.82v4.78h-3.49Z"/>
        <path class="cls-2" d="M179.99,436.25c-3.77,0-7.05-.67-9.86-2-2.81-1.33-4.98-3.31-6.52-5.92-1.54-2.61-2.31-5.85-2.31-9.72v-25.83h5.77v25.41c0,2.95.52,5.42,1.56,7.41,1.04,1.99,2.53,3.49,4.48,4.48,1.94,1,4.24,1.49,6.88,1.49s4.98-.5,6.88-1.49c1.9-1,3.37-2.48,4.39-4.45,1.02-1.97,1.53-4.43,1.53-7.38v-25.47h5.29v25.83c0,3.83-.74,7.06-2.22,9.69-1.48,2.63-3.58,4.61-6.28,5.95-2.7,1.34-5.9,2-9.58,2Z"/>
        <path class="cls-2" d="M211.84,435.47v-42.69h5.77v42.69h-5.77Z"/>
        <path class="cls-2" d="M244.59,435.47v-37.91h-16.29v-4.78h38.28v4.78h-16.23v37.91h-5.77Z"/>
        <path class="cls-2" d="M277.29,435.47v-42.69h32.75v4.72h-26.92v13.51h24.76v4.6h-24.76v15.13h26.92v4.72h-32.75Z"/>
        <path class="cls-2" d="M335.58,435.47v-37.91h-16.29v-4.78h38.28v4.78h-16.23v37.91h-5.77Z"/>
        <path class="cls-2" d="M386.54,436.25c-3.77,0-7.05-.67-9.86-2-2.81-1.33-4.98-3.31-6.52-5.92-1.54-2.61-2.31-5.85-2.31-9.72v-25.83h5.77v25.41c0,2.95.52,5.42,1.56,7.41,1.04,1.99,2.53,3.49,4.48,4.48,1.94,1,4.24,1.49,6.88,1.49s4.98-.5,6.88-1.49c1.9-1,3.37-2.48,4.39-4.45,1.02-1.97,1.53-4.43,1.53-7.38v-25.47h5.29v25.83c0,3.83-.74,7.06-2.22,9.69-1.48,2.63-3.58,4.61-6.28,5.95-2.7,1.34-5.9,2-9.59,2Z"/>
        <path class="cls-2" d="M418.39,435.47v-42.69h23.02c2.56,0,4.83.45,6.79,1.34,1.96.9,3.49,2.22,4.57,3.98,1.08,1.75,1.62,3.89,1.62,6.4,0,1.95-.36,3.71-1.08,5.26-.72,1.55-1.71,2.83-2.97,3.83-1.26,1-2.73,1.65-4.42,1.97l-.36-.66c1.64.32,2.93.75,3.88,1.29.94.54,1.67,1.27,2.19,2.18.52.92,1,2.09,1.44,3.53l3.91,13.57h-6.13l-3.61-12.8c-.44-1.67-1.14-2.9-2.1-3.68-.96-.78-2.22-1.17-3.79-1.17h-17.19v17.64h-5.77ZM424.16,413.11h16.05c1.68,0,3.13-.32,4.33-.96,1.2-.64,2.13-1.55,2.8-2.75s.99-2.63.99-4.31c0-2.39-.72-4.25-2.16-5.59-1.44-1.34-3.43-2-5.95-2h-16.05v15.61Z"/>
        <path class="cls-2" d="M464.37,435.47l18.33-42.69h7.03l18.27,42.69h-6.37l-16.65-40.18h2.04l-16.89,40.18h-5.77ZM473.56,424.41v-4.72h25.54v4.72h-25.54Z"/>
        <path class="cls-2" d="M10.88,507.22v-42.69h32.75v4.72h-26.92v13.51h24.76v4.6h-24.76v15.13h26.92v4.72H10.88Z"/>
        <path class="cls-2" d="M77.34,507.22v-42.69h5.77v42.69h-5.77Z"/>
        <path class="cls-2" d="M97.42,507.22v-42.69h7.15l26.5,36.71-1.08,1.08v-37.79h5.35v42.69h-7.09l-26.44-36.65,1.02-1.02v37.67h-5.41Z"/>
        <path class="cls-2" d="M162.32,507.22v-37.91h-16.29v-4.78h38.28v4.78h-16.23v37.91h-5.77Z"/>
        <path class="cls-2" d="M195.01,507.22v-42.69h32.75v4.72h-26.92v13.51h24.76v4.6h-24.76v15.13h26.92v4.72h-32.75Z"/>
        <path class="cls-2" d="M240.51,507.22v-42.69h23.02c2.56,0,4.83.45,6.79,1.34,1.96.9,3.49,2.22,4.57,3.98,1.08,1.75,1.62,3.89,1.62,6.4,0,1.95-.36,3.71-1.08,5.26-.72,1.55-1.71,2.83-2.97,3.83-1.26,1-2.73,1.65-4.42,1.97l-.36-.66c1.64.32,2.93.75,3.88,1.29.94.54,1.67,1.27,2.19,2.18.52.92,1,2.09,1.44,3.53l3.91,13.57h-6.13l-3.61-12.8c-.44-1.67-1.14-2.9-2.1-3.68-.96-.78-2.22-1.17-3.79-1.17h-17.19v17.64h-5.77ZM246.28,484.86h16.05c1.68,0,3.13-.32,4.33-.96,1.2-.64,2.13-1.55,2.79-2.75.66-1.2.99-2.63.99-4.31,0-2.39-.72-4.25-2.16-5.59-1.44-1.34-3.43-2-5.95-2h-16.05v15.61Z"/>
        <path class="cls-2" d="M291.17,507.22v-42.69h5.77v42.69h-5.77Z"/>
        <path class="cls-2" d="M331.79,508c-4.53,0-8.49-.9-11.9-2.69-3.41-1.79-6.05-4.34-7.93-7.65-1.88-3.31-2.82-7.24-2.82-11.78,0-2.31.25-4.44.75-6.4.5-1.95,1.21-3.76,2.13-5.41s2.04-3.12,3.37-4.39c1.32-1.28,2.82-2.35,4.51-3.23,1.68-.88,3.52-1.54,5.5-2,1.98-.46,4.12-.69,6.4-.69,4.49,0,8.43.89,11.84,2.66,3.4,1.77,6.05,4.33,7.93,7.65,1.88,3.33,2.82,7.26,2.82,11.81,0,2.27-.25,4.39-.75,6.37-.5,1.97-1.21,3.79-2.13,5.44-.92,1.65-2.04,3.12-3.36,4.39-1.32,1.28-2.82,2.35-4.51,3.23-1.68.88-3.52,1.55-5.5,2-1.98.46-4.1.69-6.34.69ZM331.73,503.22c1.76,0,3.39-.18,4.87-.54,1.48-.36,2.84-.89,4.09-1.59,1.24-.7,2.33-1.54,3.28-2.54.94-1,1.74-2.14,2.4-3.44.66-1.29,1.15-2.72,1.47-4.28.32-1.55.48-3.21.48-4.96,0-3.55-.65-6.63-1.95-9.24-1.3-2.61-3.19-4.61-5.65-6.01s-5.44-2.09-8.92-2.09c-1.76,0-3.39.18-4.87.54-1.48.36-2.85.89-4.09,1.58-1.24.7-2.33,1.55-3.28,2.54-.94,1-1.74,2.14-2.4,3.44-.66,1.3-1.15,2.71-1.47,4.25-.32,1.53-.48,3.2-.48,4.99,0,3.55.65,6.63,1.95,9.24,1.3,2.61,3.19,4.61,5.68,6.01,2.48,1.4,5.45,2.09,8.89,2.09Z"/>
        <path class="cls-2" d="M366.53,507.22v-42.69h23.02c2.56,0,4.83.45,6.79,1.34,1.96.9,3.49,2.22,4.57,3.98,1.08,1.75,1.62,3.89,1.62,6.4,0,1.95-.36,3.71-1.08,5.26-.72,1.55-1.71,2.83-2.98,3.83-1.26,1-2.73,1.65-4.42,1.97l-.36-.66c1.64.32,2.93.75,3.88,1.29.94.54,1.67,1.27,2.19,2.18.52.92,1,2.09,1.44,3.53l3.91,13.57h-6.13l-3.61-12.8c-.44-1.67-1.14-2.9-2.1-3.68-.96-.78-2.22-1.17-3.79-1.17h-17.19v17.64h-5.77ZM372.3,484.86h16.05c1.68,0,3.13-.32,4.33-.96,1.2-.64,2.13-1.55,2.79-2.75s.99-2.63.99-4.31c0-2.39-.72-4.25-2.16-5.59-1.44-1.34-3.43-2-5.95-2h-16.05v15.61Z"/>
        <path class="cls-2" d="M417.19,507.22v-42.69h32.75v4.72h-26.92v13.51h24.76v4.6h-24.76v15.13h26.92v4.72h-32.75Z"/>
        <path class="cls-2" d="M480.29,508c-3.33,0-6.22-.36-8.68-1.08-2.46-.72-4.51-1.7-6.13-2.96-1.62-1.26-2.86-2.68-3.7-4.28s-1.32-3.27-1.44-5.02h5.95c.24,1.28.7,2.44,1.38,3.5.68,1.06,1.59,1.97,2.73,2.75,1.14.78,2.53,1.38,4.18,1.79,1.64.42,3.54.63,5.71.63,2.68,0,5-.28,6.94-.84,1.94-.56,3.43-1.41,4.48-2.57,1.04-1.16,1.56-2.61,1.56-4.36,0-1.12-.26-2.12-.78-3.02-.52-.9-1.34-1.65-2.46-2.27-1.12-.62-2.58-1.07-4.39-1.35l-10.7-1.91c-1.6-.32-3.18-.72-4.75-1.2-1.56-.48-2.97-1.14-4.24-1.97s-2.27-1.93-3.04-3.29c-.76-1.35-1.14-3.03-1.14-5.02,0-1.75.42-3.36,1.26-4.81.84-1.45,2.04-2.7,3.61-3.74,1.56-1.04,3.45-1.83,5.65-2.39,2.2-.56,4.69-.84,7.45-.84,3,0,5.61.31,7.81.93,2.2.62,4.03,1.49,5.47,2.63,1.44,1.14,2.55,2.43,3.34,3.89.78,1.46,1.21,2.98,1.29,4.58h-5.89c-.28-1.44-.89-2.71-1.83-3.83-.94-1.12-2.26-1.99-3.97-2.63-1.7-.64-3.84-.96-6.4-.96s-4.55.29-6.31.87c-1.76.58-3.12,1.38-4.06,2.39-.94,1.02-1.41,2.24-1.41,3.68,0,1.16.31,2.16.93,3.02s1.53,1.56,2.73,2.12c1.2.56,2.7,1.02,4.51,1.38l11.18,1.97c2.56.48,4.75,1.2,6.55,2.15,1.8.96,3.18,2.19,4.15,3.71s1.44,3.35,1.44,5.5-.43,3.91-1.29,5.5c-.86,1.59-2.1,2.94-3.73,4.04-1.62,1.1-3.61,1.92-5.95,2.48-2.34.56-5.02.84-8.02.84Z"/>
      </g>
    </g>
  </g>
</svg>